<svg width="13" height="13" viewBox="0 0 13 13" fill="none" xmlns="http://www.w3.org/2000/svg">
<path d="M5.98534 0.938285L5.98534 0.938285C5.43551 1.01287 4.78517 1.32022 4.34148 1.71257L4.34148 1.71258C3.78121 2.20806 3.38643 2.92041 3.26591 3.65406L3.36459 3.67027L3.26591 3.65406C3.24345 3.79083 3.23439 4.00722 3.23635 4.21563C3.23831 4.42357 3.25134 4.63563 3.27661 4.76293L3.27662 4.76293C3.43511 5.56102 3.8843 6.30131 4.49532 6.76471L4.55575 6.68503L4.49532 6.76471L4.49889 6.76742C4.3079 6.84198 4.19518 6.89297 4.00525 6.98829C3.03462 7.47538 2.24469 8.21247 1.6841 9.15378C1.22407 9.92621 0.968304 10.7864 0.914708 11.7364L1.01455 11.742L0.914708 11.7364L0.900159 11.9944L0.894202 12.1H1H1.4324H1.86481H1.96481V12V11.8948C1.96481 11.1861 2.26171 10.1979 2.6562 9.5952L2.57253 9.54043L2.6562 9.5952C3.27017 8.65712 4.08858 8.01649 5.08558 7.68982C6.03434 7.37896 6.96566 7.37896 7.91442 7.68982C8.91142 8.01649 9.72983 8.65712 10.3438 9.5952L10.4275 9.54043L10.3438 9.5952C10.7383 10.1979 11.0352 11.1861 11.0352 11.8948V12V12.1H11.1352H11.5676H12H12.1058L12.0998 11.9944L12.0853 11.7364C12.0317 10.7864 11.7759 9.92621 11.3159 9.15378C10.7553 8.21247 9.96538 7.47538 8.99475 6.98829C8.80482 6.89297 8.6921 6.84198 8.50111 6.76742L8.50468 6.76471C9.11569 6.30131 9.56489 5.56102 9.72338 4.76293L9.6253 4.74345L9.72339 4.76293C9.74866 4.63563 9.76169 4.42357 9.76365 4.21563C9.76561 4.00722 9.75655 3.79083 9.73409 3.65406C9.63785 3.06825 9.34566 2.45193 8.95376 2.0084C8.47027 1.46122 7.78845 1.07494 7.07742 0.945949C6.98721 0.929582 6.8032 0.915457 6.63201 0.90738C6.54525 0.903286 6.45958 0.900647 6.3878 0.900104C6.31856 0.899581 6.25529 0.900885 6.21758 0.906291C6.18259 0.911305 6.0781 0.925706 5.98534 0.938285ZM6.84697 1.98437C8.05531 2.18071 8.88046 3.3205 8.68594 4.52221C8.48991 5.73314 7.35207 6.55946 6.15303 6.36466C4.94469 6.16832 4.11954 5.02853 4.31406 3.82682C4.51005 2.61608 5.64812 1.78959 6.84697 1.98437Z" fill="#333333" stroke="#333333" stroke-width="0.2"/>
</svg>
