<svg  stroke="currentColor" width="4" height="20" viewBox="0 0 4 20" fill="none" xmlns="http://www.w3.org/2000/svg">
<path stroke="currentColor" fill-rule="evenodd" clip-rule="evenodd" d="M1.53791 0.0525555C0.654868 0.266516 0.00317644 1.08336 0.00317644 1.97621C0.00317644 2.53704 0.194588 3.00107 0.589371 3.39718C0.997518 3.80674 1.42001 3.98252 1.99624 3.98252C2.57297 3.98252 2.99554 3.80654 3.4031 3.3966C4.1863 2.60887 4.18692 1.3804 3.40455 0.587751C2.92594 0.102851 2.19511 -0.106694 1.53791 0.0525555ZM1.49895 8.06786C0.440243 8.35303 -0.209065 9.44312 0.0613659 10.4813C0.450833 11.9765 2.29047 12.4997 3.38704 11.4272C4.50081 10.3378 3.99407 8.46112 2.47961 8.06665C2.20105 7.99408 1.77086 7.99463 1.49895 8.06786ZM1.45323 16.0809C0.783753 16.2609 0.187789 16.8935 0.0462424 17.5744C-0.254163 19.0193 1.03222 20.2819 2.46156 19.945C3.71687 19.6491 4.34875 18.2559 3.76334 17.0748C3.63227 16.8103 3.21638 16.3852 2.95076 16.2442C2.53726 16.0246 1.91487 15.9568 1.45323 16.0809Z" fill="#333333"/>
</svg>
