<svg width="13" height="17" viewBox="0 0 13 17" fill="none" xmlns="http://www.w3.org/2000/svg">
<path fill-rule="evenodd" clip-rule="evenodd" d="M4.53262 0.0324885C4.29362 0.0822377 3.96477 0.271836 3.78299 0.464722C3.47933 0.786962 3.34362 1.19734 3.34215 1.79795L3.34152 2.05533L2.39474 2.056C1.32943 2.05673 1.09513 2.08127 0.811817 2.22172C0.557767 2.34765 0.255862 2.66521 0.139462 2.92886C-0.121724 3.52061 -0.00976897 4.20504 0.422651 4.66022C0.572071 4.81751 0.925274 5.04427 1.02086 5.04427C1.04609 5.04427 1.05786 6.44422 1.06399 10.167L1.07238 15.2897L1.15763 15.5553C1.27576 15.9233 1.44336 16.2078 1.6832 16.4475C1.92911 16.6932 2.1908 16.8464 2.51511 16.9344C2.74926 16.9979 2.87483 17 6.50267 17C10.1305 17 10.2561 16.9979 10.4902 16.9344C11.2516 16.7278 11.7975 16.0574 11.9167 15.1829C11.9356 15.0437 11.9476 13.0629 11.948 10.0035L11.9486 5.04941L12.066 5.00876C12.514 4.8536 12.9032 4.34705 12.9841 3.81389C13.0693 3.25287 12.805 2.62708 12.353 2.31929C12.0118 2.08701 11.958 2.07838 10.7561 2.0632L9.67315 2.04955L9.65346 1.66103C9.63165 1.23055 9.56745 0.981608 9.41203 0.724559C9.20264 0.378375 8.82421 0.106182 8.44659 0.030197C8.23968 -0.0114488 4.73393 -0.00938975 4.53262 0.0324885ZM8.49079 0.864973C8.77128 1.02827 8.88327 1.25742 8.90518 1.71293L8.92164 2.05533H6.5037H4.08577L4.09729 1.69832C4.10755 1.38116 4.11841 1.32394 4.19478 1.18572C4.24204 1.10017 4.32483 0.996818 4.37872 0.956102C4.59315 0.794102 4.5842 0.794733 6.54962 0.802571C8.20162 0.809179 8.40619 0.815755 8.49079 0.864973ZM11.8704 2.94049C12.0299 3.03158 12.12 3.13464 12.1855 3.30099C12.306 3.60705 12.2068 3.97393 11.952 4.16389L11.818 4.26382L6.5704 4.27359C2.90685 4.28043 1.28777 4.27266 1.2068 4.24781C0.895071 4.15217 0.69523 3.76998 0.774228 3.42051C0.833632 3.15775 1.03304 2.95062 1.29147 2.8832C1.34311 2.86972 3.71632 2.86102 6.56527 2.86384L11.7452 2.86899L11.8704 2.94049ZM11.1903 9.97601C11.196 13.3067 11.1882 14.9318 11.1654 15.0904C11.0995 15.5496 10.8762 15.8889 10.5157 16.0772L10.3068 16.1863L6.5848 16.1953C2.54691 16.205 2.65349 16.2093 2.37959 16.0259C2.12332 15.8542 1.91093 15.5194 1.84307 15.1801C1.81794 15.0543 1.80789 13.5892 1.80789 10.0407V5.07724L6.49485 5.08568L11.1818 5.09408L11.1903 9.97601ZM4.03679 6.27106C3.98618 6.32476 3.93579 6.41629 3.92483 6.47447C3.91388 6.53265 3.90489 8.27507 3.90489 10.3465C3.90489 14.3621 3.90048 14.2419 4.05319 14.3861C4.14768 14.4753 4.31566 14.4929 4.44608 14.4273C4.6697 14.3146 4.65606 14.5825 4.65606 10.3097C4.65606 6.13991 4.66485 6.35209 4.48661 6.22815C4.44323 6.19799 4.34523 6.17342 4.26833 6.17342C4.15566 6.17342 4.11109 6.19221 4.03679 6.27106ZM6.2787 6.24831C6.233 6.28932 6.18017 6.35551 6.16133 6.3954C6.13714 6.44667 6.12709 7.59422 6.12709 10.3092C6.12709 14.5825 6.11344 14.3146 6.33707 14.4273C6.46749 14.4929 6.63547 14.4753 6.72996 14.3861C6.88267 14.2419 6.87825 14.3621 6.87825 10.3465C6.87825 8.27507 6.86927 6.53265 6.85832 6.47447C6.84736 6.41629 6.79697 6.32476 6.74636 6.27106C6.6264 6.14376 6.40715 6.13307 6.2787 6.24831ZM8.4557 6.28633L8.34929 6.39925V10.2898C8.34929 13.6309 8.35573 14.1936 8.39486 14.2739C8.44465 14.3761 8.61172 14.476 8.73279 14.476C8.84978 14.476 9.01738 14.3392 9.05957 14.2092C9.10874 14.0577 9.11688 6.65261 9.06806 6.46613C9.02133 6.2876 8.8792 6.17342 8.70368 6.17342C8.5844 6.17342 8.54534 6.19122 8.4557 6.28633Z" fill="#333333"/>
</svg>
