<svg width="18" height="16" viewBox="0 0 18 16" fill="none" xmlns="http://www.w3.org/2000/svg">
<path fill-rule="evenodd" clip-rule="evenodd" d="M4.38877 0.0325995C4.22368 0.0864442 4.08173 0.203639 4.00692 0.347851C3.94785 0.461763 3.9365 0.541686 3.9365 0.844085V1.20455L3.4084 1.22394C2.67457 1.25092 2.2954 1.3331 1.78114 1.57662C0.937154 1.97626 0.333111 2.6925 0.0727665 3.60227L0 3.85654V8.60939V13.3622L0.0762508 13.6418C0.158766 13.9442 0.380818 14.411 0.553857 14.6457C0.705353 14.8512 1.06912 15.2049 1.29814 15.3694C1.72609 15.6767 2.32347 15.9062 2.86895 15.9728C3.06487 15.9968 4.83254 16.0043 8.74405 15.9978L14.3389 15.9885L14.5983 15.9196C15.1949 15.7612 15.6434 15.5354 16.034 15.1968C16.6173 14.691 16.955 14.1212 17.0855 13.4228C17.1622 13.0123 17.1619 4.20485 17.0852 3.79426C16.9662 3.15738 16.6596 2.61558 16.1476 2.13739C15.4441 1.48037 14.6907 1.21828 13.4963 1.21515L13.1898 1.21434L13.178 0.810503C13.1667 0.420238 13.1629 0.402165 13.0658 0.2739C12.773 -0.112831 12.1688 -0.0798115 11.9363 0.335656C11.8502 0.489498 11.843 0.529616 11.843 0.858313V1.21434H8.55978H5.27658V0.858313C5.27658 0.529616 5.26941 0.489498 5.18331 0.335656C5.03165 0.0647125 4.68986 -0.0656468 4.38877 0.0325995ZM3.9365 3.13836C3.9365 3.85705 3.95475 3.95782 4.11399 4.11714C4.45591 4.45925 5.11004 4.32114 5.2416 3.87903C5.26063 3.81508 5.27628 3.47075 5.27638 3.11391L5.27658 2.46509H8.55978H11.843L11.8432 3.11391C11.8433 3.47075 11.8589 3.81508 11.878 3.87903C12.0095 4.32114 12.6637 4.45925 13.0056 4.11714C13.165 3.95764 13.1831 3.85739 13.1831 3.13377V2.45589L13.6605 2.47415C13.928 2.48435 14.2251 2.5143 14.3362 2.54226C14.8686 2.67615 15.3479 3.04878 15.5943 3.52028C15.741 3.80107 15.795 4.06952 15.7957 4.52101L15.7962 4.90405H8.55978H1.32333L1.3239 4.52101C1.32461 4.06952 1.37861 3.80107 1.52532 3.52028C1.81749 2.96095 2.37054 2.58891 3.04792 2.49598C3.14045 2.48329 3.37828 2.47112 3.57635 2.469L3.9365 2.46509V3.13836ZM15.7962 9.63626C15.7962 13.0178 15.7943 13.1248 15.7291 13.3628C15.5629 13.9692 15.0631 14.4655 14.421 14.6618L14.1714 14.7381H8.55978H2.94818L2.69859 14.6618C2.40187 14.5711 2.01713 14.3393 1.82486 14.1355C1.62532 13.9239 1.46706 13.6422 1.39024 13.3619C1.32534 13.125 1.32333 13.0137 1.32333 9.63626V6.1548H8.55978H15.7962V9.63626ZM3.68493 8.05797C3.45792 8.15424 3.26682 8.41337 3.26682 8.62502C3.26682 8.83668 3.45792 9.09581 3.68493 9.19208C3.80235 9.24186 3.9173 9.24912 4.59923 9.24971C5.46144 9.25046 5.53491 9.23783 5.73861 9.05384C5.80722 8.99184 5.86816 8.89215 5.90009 8.78966C5.94612 8.64185 5.94612 8.6082 5.90009 8.46039C5.86816 8.3579 5.80722 8.25821 5.73861 8.19621C5.53491 8.01222 5.46144 7.99959 4.59923 8.00034C3.9173 8.00093 3.80235 8.00819 3.68493 8.05797ZM7.59432 8.08086C7.20777 8.26062 7.11162 8.71814 7.39673 9.0212C7.59703 9.23414 7.67298 9.24902 8.55978 9.24902C9.43228 9.24902 9.51359 9.23408 9.71162 9.03727C10.0083 8.74247 9.88871 8.23507 9.48109 8.05894C9.3628 8.00781 9.25448 8.00093 8.55797 8.00034C7.7749 7.99965 7.76756 8.00028 7.59432 8.08086ZM11.6085 8.04949C11.051 8.27488 11.0555 8.9838 11.6158 9.2019C11.7164 9.24108 11.8903 9.25027 12.5203 9.24971C13.2023 9.24912 13.3172 9.24186 13.4346 9.19208C13.6616 9.09581 13.8527 8.83668 13.8527 8.62502C13.8527 8.41337 13.6616 8.15424 13.4346 8.05797C13.3168 8.008 13.2038 8.00109 12.513 8.00156C11.8844 8.002 11.7021 8.01166 11.6085 8.04949ZM3.64107 11.7706C3.25453 11.9503 3.15838 12.4079 3.44348 12.7109C3.64332 12.9233 3.72067 12.9386 4.59923 12.9394C5.22927 12.94 5.40318 12.9308 5.50379 12.8916C5.95888 12.7145 6.07363 12.1812 5.72346 11.8708C5.53448 11.7033 5.44818 11.6894 4.59742 11.6894C3.82292 11.6894 3.81401 11.6901 3.64107 11.7706ZM7.67198 11.7308C7.43318 11.818 7.28362 11.9874 7.23659 12.2238C7.1873 12.4715 7.36771 12.7671 7.63818 12.8818C7.7559 12.9317 7.86978 12.9387 8.55978 12.9387C9.45181 12.9387 9.53198 12.9226 9.72489 12.7042C10.0028 12.3895 9.88365 11.9226 9.48109 11.7486C9.36226 11.6973 9.25793 11.6909 8.55978 11.6924C8.04074 11.6935 7.73825 11.7066 7.67198 11.7308ZM11.6085 11.7392C11.051 11.9646 11.0555 12.6735 11.6158 12.8916C11.7164 12.9308 11.8903 12.94 12.5203 12.9394C13.3989 12.9386 13.4762 12.9233 13.6761 12.7109C13.9624 12.4066 13.8625 11.9491 13.4698 11.7665C13.3073 11.6909 13.2879 11.6894 12.5148 11.6906C11.8858 11.6915 11.7019 11.7014 11.6085 11.7392Z" fill="#6F767E"/>
</svg>
