<svg width="23" height="23" viewBox="0 0 23 23" fill="none" xmlns="http://www.w3.org/2000/svg">
<path fill-rule="evenodd" clip-rule="evenodd" d="M10.4684 0.0272155C8.24596 0.24481 6.19185 1.06358 4.39085 2.44974C3.51381 3.12475 2.37483 4.39333 1.71663 5.42817C1.43237 5.8751 0.879026 7.00762 0.680801 7.5481C0.459164 8.15247 0.222942 9.07604 0.106699 9.79267C-0.0355662 10.6698 -0.0355662 12.3351 0.106699 13.2123C0.30785 14.4522 0.626056 15.4546 1.17071 16.5644C1.7658 17.7768 2.38456 18.6362 3.37541 19.6265C4.36632 20.6168 5.22621 21.2352 6.43929 21.83C7.54967 22.3743 8.55264 22.6923 9.79332 22.8934C10.6709 23.0355 12.3372 23.0355 13.2149 22.8934C14.4556 22.6923 15.4585 22.3743 16.5689 21.83C17.782 21.2352 18.6419 20.6168 19.6328 19.6265C20.6236 18.6362 21.2424 17.7768 21.8375 16.5644C22.2327 15.7591 22.4315 15.2313 22.6445 14.422C22.9281 13.3442 23 12.7533 23 11.5025C23 10.2516 22.9281 9.66079 22.6445 8.58298C22.4315 7.77366 22.2327 7.24587 21.8375 6.44055C21.2424 5.22817 20.6236 4.36877 19.6328 3.37843C18.6419 2.38814 17.782 1.76973 16.5689 1.17499C15.4596 0.631136 14.4368 0.306678 13.2374 0.118105C12.5756 0.014077 11.098 -0.0344275 10.4684 0.0272155ZM17.5343 6.56321C17.7595 6.63232 18.1031 6.97271 18.1981 7.2209C18.3081 7.50846 18.2971 7.88201 18.1709 8.14262C18.0292 8.43513 10.6184 15.7869 10.2824 15.9682C9.96079 16.1418 9.58096 16.1418 9.25883 15.9682C9.06813 15.8654 5.65453 12.8098 5.07417 12.2224C4.84759 11.993 4.73485 11.713 4.73904 11.39C4.74796 10.709 5.2448 10.2497 5.9202 10.298C6.08227 10.3096 6.27978 10.3526 6.35906 10.3935C6.47895 10.4555 8.75483 12.5003 9.49006 13.2066L9.70458 13.4126L13.0692 10.0549C14.9198 8.20809 16.499 6.66449 16.5787 6.62467C16.8907 6.46868 17.1681 6.45081 17.5343 6.56321Z" fill="white"/>
</svg>
