<svg width="11" height="11" viewBox="0 0 11 11" fill="none" xmlns="http://www.w3.org/2000/svg">
<path fill-rule="evenodd" clip-rule="evenodd" d="M5.00665 0.0130161C3.94372 0.117083 2.96132 0.508669 2.09997 1.17161C1.68052 1.49445 1.13579 2.10116 0.820998 2.59608C0.685048 2.80983 0.420404 3.35147 0.3256 3.60996C0.2196 3.89901 0.106624 4.34071 0.0510298 4.68345C-0.0170099 5.10295 -0.0170099 5.89942 0.0510298 6.31891C0.147233 6.91194 0.299418 7.39135 0.559907 7.9221C0.844511 8.50194 1.14044 8.91295 1.61433 9.38659C2.08824 9.86021 2.49949 10.156 3.07966 10.4404C3.61071 10.7008 4.09039 10.8529 4.68376 10.949C5.1035 11.017 5.90042 11.017 6.32016 10.949C6.91353 10.8529 7.39321 10.7008 7.92426 10.4404C8.50443 10.156 8.91568 9.86021 9.38959 9.38659C9.86348 8.91295 10.1594 8.50194 10.444 7.9221C10.633 7.53695 10.7281 7.28453 10.83 6.89746C10.9656 6.38199 11 6.09942 11 5.50118C11 4.90295 10.9656 4.62038 10.83 4.1049C10.7281 3.71784 10.633 3.46542 10.444 3.08026C10.1594 2.50043 9.86348 2.08941 9.38959 1.61577C8.91568 1.14215 8.50443 0.846393 7.92426 0.561951C7.39372 0.301848 6.90455 0.146672 6.33092 0.056485C6.01443 0.00673246 5.30772 -0.0164653 5.00665 0.0130161ZM8.38598 3.13893C8.49368 3.17198 8.65799 3.33477 8.70342 3.45347C8.75607 3.591 8.75079 3.76966 8.69042 3.8943C8.62266 4.03419 5.07835 7.55025 4.91768 7.63697C4.76386 7.71999 4.5822 7.71999 4.42814 7.63697C4.33693 7.58782 2.70434 6.12645 2.42678 5.84549C2.31841 5.73581 2.2645 5.60185 2.2665 5.44738C2.27076 5.12169 2.50838 4.90202 2.8314 4.92511C2.90891 4.93066 3.00337 4.95124 3.04129 4.97082C3.09863 5.00045 4.18709 5.97839 4.53872 6.3162L4.64132 6.41474L6.25048 4.80884C7.13554 3.92561 7.89084 3.18737 7.92895 3.16832C8.07815 3.09371 8.21084 3.08517 8.38598 3.13893Z" fill="#70BC7C"/>
</svg>
