<svg width="15" height="15" viewBox="0 0 15 15" fill="none" xmlns="http://www.w3.org/2000/svg">
<path fill-rule="evenodd" clip-rule="evenodd" d="M6.79808 0.0176026C5.33851 0.1588 3.89177 0.752211 2.75734 1.67501C2.42366 1.94646 1.89533 2.47893 1.6292 2.81208C0.956282 3.65439 0.404849 4.79375 0.176149 5.81421C0.0325288 6.45521 0 6.76681 0 7.50212C0 8.23744 0.0325288 8.54904 0.176149 9.19003C0.409839 10.2328 0.975659 11.3884 1.67095 12.243C1.94242 12.5766 2.47495 13.1049 2.80813 13.371C3.65054 14.0438 4.79001 14.5952 5.81059 14.8239C6.45165 14.9675 6.76329 15 7.49868 15C8.23407 15 8.54571 14.9675 9.18677 14.8239C9.95411 14.6519 10.9574 14.2232 11.6167 13.7856C12.7602 13.0265 13.6385 12.0278 14.2381 10.8046C14.6054 10.0553 14.8141 9.38422 14.9455 8.52955C15.0182 8.05664 15.0182 6.94761 14.9455 6.4747C14.8141 5.62003 14.6054 4.94897 14.2381 4.19969C13.8462 3.40012 13.4093 2.79182 12.7785 2.16753C12.1592 1.5546 11.5919 1.15182 10.8015 0.763806C10.061 0.400333 9.37555 0.185983 8.55557 0.0614883C8.18684 0.00550839 7.18229 -0.0195901 6.79808 0.0176026ZM8.43814 0.738942C9.92918 0.955494 11.2769 1.6269 12.3257 2.67561C13.3778 3.72754 14.0297 5.03739 14.2677 6.57744C14.3026 6.80289 14.3176 7.08197 14.3176 7.50212C14.3176 8.6125 14.0996 9.55148 13.6141 10.5316C12.6066 12.5654 10.7356 13.9132 8.42346 14.2704C7.98007 14.339 7.0173 14.339 6.5739 14.2704C5.03369 14.0325 3.7237 13.3806 2.67165 12.3286C1.61957 11.2767 0.967644 9.96686 0.729638 8.4268C0.661116 7.98346 0.661116 7.02079 0.729638 6.57744C0.850652 5.79451 1.05589 5.13365 1.3833 4.47266C2.37275 2.4752 4.23051 1.11548 6.47021 0.749481C7.0365 0.656954 7.8439 0.652609 8.43814 0.738942ZM7.94252 3.78699C7.6667 3.87672 7.4013 4.12745 7.32256 4.37262C7.23041 4.65965 7.33771 5.03211 7.57178 5.23759C8.08778 5.6906 8.95567 5.49688 9.15953 4.88316C9.34299 4.33091 8.92182 3.78082 8.29543 3.75455C8.15601 3.74871 8.02249 3.76098 7.94252 3.78699ZM6.9717 6.30089C6.77084 6.33635 5.96857 6.61108 5.92559 6.65914C5.89253 6.69609 5.78608 7.06174 5.80334 7.07903C5.80871 7.0844 5.89843 7.062 6.00268 7.0293C6.41193 6.90085 6.79356 6.96038 6.89261 7.16809C6.99786 7.38875 6.94687 7.69584 6.61938 8.81406C6.36637 9.67797 6.32233 9.88293 6.31775 10.2175C6.31479 10.4336 6.32632 10.5095 6.38111 10.6347C6.4676 10.8322 6.68206 11.0322 6.93386 11.15C7.11133 11.2331 7.16459 11.2434 7.47358 11.2544C7.88515 11.2691 8.08056 11.2312 8.62897 11.0306L9.01063 10.891L9.06732 10.6941C9.09849 10.5858 9.11705 10.4902 9.10859 10.4817C9.10011 10.4733 9.03496 10.4881 8.96383 10.5148C8.77353 10.5861 8.27961 10.5874 8.15061 10.5169C7.84408 10.3496 7.86296 10.0673 8.27515 8.65522C8.53279 7.77251 8.55566 7.66466 8.55836 7.3203C8.56218 6.8313 8.40368 6.57785 7.96841 6.37706C7.79875 6.2988 7.74174 6.28812 7.45465 6.28084C7.27703 6.27632 7.05972 6.28536 6.9717 6.30089Z" fill="#444444"/>
</svg>
