<svg width="20" height="20" viewBox="0 0 20 20" fill="none" xmlns="http://www.w3.org/2000/svg">
<path fill-rule="evenodd" clip-rule="evenodd" d="M9.66976 0.0621975C9.59712 0.0958339 9.50515 0.162598 9.46539 0.210512C9.42564 0.258472 8.78441 1.59718 8.04046 3.18544C7.29652 4.7737 6.67527 6.08705 6.65991 6.10405C6.64455 6.12101 5.24519 6.34593 3.55021 6.60384C1.35422 6.93798 0.430519 7.09586 0.33648 7.15302C0.0393961 7.33377 -0.090259 7.80061 0.0679687 8.12002C0.101956 8.18863 1.01826 9.15281 2.10415 10.2627C3.19004 11.3725 4.19263 12.4025 4.3321 12.5516L4.58569 12.8226L4.05725 16.0565C3.50121 19.4592 3.50469 19.4253 3.68141 19.7084C3.79055 19.8832 4.08468 20.0176 4.30204 19.9918C4.43614 19.976 5.25074 19.5492 7.22251 18.462C8.72651 17.6327 9.97781 16.9542 10.0032 16.9542C10.0286 16.9542 11.2736 17.6298 12.7699 18.4556C14.2662 19.2814 15.552 19.97 15.6273 19.9858C15.8448 20.0315 16.0608 19.9658 16.2239 19.8043C16.5192 19.5121 16.5292 19.6456 15.9422 16.0534L15.4143 12.823L15.6238 12.5977C15.739 12.4737 16.7418 11.4436 17.852 10.3086C18.9623 9.17351 19.8984 8.18868 19.9322 8.12006C20.0902 7.79955 19.9606 7.33455 19.6624 7.15182C19.5663 7.09291 18.6764 6.94057 16.4487 6.60167C14.7543 6.34389 13.3554 6.11953 13.34 6.10308C13.3246 6.08663 12.7034 4.7737 11.9594 3.18544C11.2155 1.59718 10.5743 0.258425 10.5345 0.210466C10.3679 0.0094326 9.94148 -0.0637081 9.66976 0.0621975Z" fill="#FFC700"/>
</svg>
